<svg width="65" height="65" viewBox="0 0 65 65" fill="none" xmlns="http://www.w3.org/2000/svg">
    <path opacity="0.5"
        d="M58.0157 6.35129L45.286 53.8829C45.2212 54.0986 44.9623 54.1634 44.8113 54.0123L36.2888 45.4899L42.6753 21.6701C42.74 21.4544 42.5458 21.2602 42.3301 21.3249L18.5103 27.7114L10.031 19.2321C9.88001 19.081 9.94474 18.8221 10.1605 18.7574L57.6705 6.00608C57.8863 5.96292 58.0804 6.15711 58.0157 6.35129Z"
        fill="#00B37E" />
    <path opacity="0.5"
        d="M36.2885 45.49L33.009 57.7882C32.9442 58.004 32.6853 58.0687 32.5343 57.9177L6.08231 31.4873C5.93128 31.3362 5.99601 31.0773 6.21177 31.0126L18.51 27.7115L36.2885 45.49Z"
        fill="#00B37E" />
    <path d="M42.6752 21.67L36.2887 45.4897L18.5103 27.7112L42.33 21.3247C42.5457 21.26 42.7399 21.4542 42.6752 21.67Z"
        fill="#00B37E" />
</svg>